{"accessors" : [{"bufferView" : 0, "byteOffset" : 0, "componentType" : 5123, "count" : 732, "type" : "SCALAR", "max" : [248], "min" : [0]}, {"bufferView" : 1, "byteOffset" : 0, "componentType" : 5126, "count" : 249, "type" : "VEC3", "max" : [1.3351185321807861, 1.8481333255767822, 1.3199462890625], "min" : [-1.7136417627334595, -0.05084158852696419, -1.1591253280639648], "name" : "POSITION"}, {"bufferView" : 1, "byteOffset" : 12, "componentType" : 5126, "count" : 249, "type" : "VEC3", "max" : [0.9796121716499329, 0.9936714768409729, 0.9936823844909668], "min" : [-0.9979701042175293, -0.9996518492698669, -0.9943205118179321], "name" : "NORMAL"}, {"bufferView" : 1, "byteOffset" : 24, "componentType" : 5126, "count" : 249, "type" : "VEC2", "max" : [0.8449106812477112, 1.998046875], "min" : [0.001953125, 1.0584741830825806], "name" : "TEXCOORD_0"}], "asset" : {"generator" : "Aspose.3D 24.6.0", "version" : "2.0"}, "buffers" : [{"uri" : "data:application/octet-stream;base64,", "byteLength" : 9440}], "bufferViews" : [{"buffer" : 0, "byteOffset" : 0, "byteLength" : 1464, "target" : 34963}, {"buffer" : 0, "byteOffset" : 1468, "byteLength" : 7968, "byteStride" : 32, "target" : 34962}], "images" : [{"uri" : "data:image/png;base64,"}], "materials" : [{"name" : "Rocks", "pbrMetallicRoughness" : {"baseColorFactor" : [1, 1, 1, 1], "baseColorTexture" : {"index" : 0, "texCoord" : 0}, "metallicFactor" : 0.400000005960464, "roughnessFactor" : 1}, "emissiveFactor" : [0, 0, 0], "alphaMode" : "OPAQUE", "doubleSided" : false}], "meshes" : [{"primitives" : [{"attributes" : {"POSITION" : 1, "NORMAL" : 2, "TEXCOORD_0" : 3}, "indices" : 0, "material" : 0, "mode" : 4}]}], "nodes" : [{"matrix" : [1, 0, 0, 0, 0, 0.999999999999981, -1.947071837093972E-07, 0, 0, 1.947071837093972E-07, 0.999999999999981, 0, 0, 0, 0, 1], "mesh" : 0, "name" : "Rock_Medium_2"}, {"children" : [0], "name" : "RootNode"}], "samplers" : [{"magFilter" : 9728, "minFilter" : 9728, "wrapS" : 10497, "wrapT" : 10497}], "scene" : 0, "scenes" : [{"nodes" : [1]}], "textures" : [{"sampler" : 0, "source" : 0, "name" : ""}]}